#!OML:ASF I:\golf\golf\golf 2\Subject 1\2002-09-07\Subject1.ASF
:FULLY-SPECIFIED
:DEGREES
334
root -7.43253 17.7509 2.89276 -0.736398 67.9879 -20.4362
lowerback 8.42276 -10.3094 -9.59288
upperback 3.59834 -14.3184 1.61354
thorax 1.92627 -7.38846 7.48984
lowerneck -8.22892 17.1039 4.05474
upperneck 16.7389 25.7138 -13.4351
head 8.92499 11.3375 -2.03912
rclavicle 3.33958e-014 -1.59028e-014
rhumerus 20.8014 -20.3806 -77.5556
rradius 91.9126
rwrist -29.4344
rhand -63.1519 18.2296
rfingers 7.12502
rthumb -35.147 -8.29203
lclavicle 3.33958e-014 -1.59028e-014
lhumerus 91.3806 -53.703 57.9131
lradius 24.5715
lwrist -0.594776
lhand -6.60445 17.688
lfingers 7.12502
lthumb -160.749 226.755
rfemur -40.7135 4.98097 18.1737
rtibia 32.9925
rfoot -6.60126 1.48194
rtoes -11.569
lfemur -30.6426 24.9972 -5.37105
ltibia 37.0333
lfoot -9.11566 5.01169
ltoes -19.0238
335
root -7.42423 17.7546 2.80358 -2.43069 70.4154 -22.159
lowerback 8.16788 -10.4854 -8.87955
upperback 3.91383 -14.4636 2.06657
thorax 2.37314 -7.49184 7.49454
lowerneck -8.4805 16.5596 4.39061
upperneck 17.3155 25.0773 -13.6402
head 9.18254 10.9958 -2.19778
rclavicle 3.97569e-015 -2.54444e-014
rhumerus 19.3833 -19.6639 -78.08
rradius 90.9739
rwrist -29.9525
rhand -63.4544 18.6997
rfingers 7.12502
rthumb -35.4339 -7.75391
lclavicle 3.97569e-015 -2.54444e-014
lhumerus 88.6612 -54.2939 59.8269
lradius 23.9913
lwrist -1.13253
lhand -6.71991 18.4071
lfingers 7.12502
lthumb -160.86 227.485
rfemur -40.4952 4.60248 17.486
rtibia 33.2261
rfoot -6.52282 -0.836943
rtoes -13.9356
lfemur -31.5022 23.9248 -6.12635
ltibia 36.3316
lfoot -9.41957 4.78506
ltoes -18.4994
336
root -7.41295 17.7594 2.71532 -4.76671 72.9474 -24.3961
lowerback 7.9898 -10.5688 -8.00726
upperback 4.1428 -14.4902 2.46961
thorax 2.60657 -7.51195 7.40341
lowerneck -8.70502 15.8405 4.62268
upperneck 18.0835 24.1794 -13.5679
head 9.41949 10.5463 -2.30839
rclavicle -7.63333e-014 -3.18055e-015
rhumerus 17.5749 -19.104 -78.3756
rradius 90.1249
rwrist -30.4713
rhand -63.8974 18.2122
rfingers 7.12502
rthumb -35.8537 -8.14016
lclavicle -7.63333e-014 -3.18055e-015
lhumerus 85.4734 -55.2115 62.2151
lradius 23.3397
lwrist -1.57743
lhand -7.14349 19.0242
lfingers 7.12502
lthumb -161.267 228.142
rfemur -40.0861 4.1202 16.7719
rtibia 33.5162
rfoot -6.48213 -2.95363
rtoes -14.3489
lfemur -32.1382 22.7204 -6.7918
ltibia 35.5452
lfoot -9.6181 4.25404
ltoes -18.0618
337
root -7.40171 17.7672 2.6218 -7.54657 75.6311 -27.067
lowerback 7.68793 -10.6773 -7.16718
upperback 4.37908 -14.5506 2.89114
thorax 2.93443 -7.5495 7.31779
lowerneck -9.02283 15.0802 4.70561
upperneck 18.8279 23.2247 -13.4563
head 9.63609 10.0664 -2.39559
rclavicle -5.1684e-014 9.54166e-015
rhumerus 15.7083 -18.3983 -78.6167
rradius 89.2606
rwrist -31.3594
rhand -64.1887 18.2155
rfingers 7.12502
rthumb -36.1297 -8.069
lclavicle -5.1684e-014 9.54166e-015
lhumerus 82.0738 -55.9704 64.7665
lradius 22.6503
lwrist -1.96496
lhand -7.43806 19.7152
lfingers 7.12502
lthumb -161.551 228.86
rfemur -39.6355 3.42094 15.9186
rtibia 33.8535
rfoot -6.48437 -4.89048
rtoes -13.9724
lfemur -32.7213 21.3033 -7.57902
ltibia 34.6845
lfoot -9.60923 3.51867
ltoes -19.3019
338
root -7.39129 17.7781 2.5279 -11.0817 78.3819 -30.5139
lowerback 7.25237 -10.8084 -6.47498
upperback 4.59606 -14.6553 3.38733
thorax 3.38209 -7.61577 7.35239
lowerneck -9.327 14.3056 4.70886
upperneck 19.4442 22.2702 -13.4877
head 9.81732 9.58132 -2.52494
rclavicle -2.3059e-014 -1.43125e-014
rhumerus 13.9012 -17.4378 -78.7923
rradius 88.1333
rwrist -32.2345
rhand -64.5147 18.0183
rfingers 7.12502
rthumb -36.4384 -8.18928
lclavicle -2.3059e-014 -1.43125e-014
lhumerus 78.4742 -56.4569 67.4879
lradius 21.9703
lwrist -2.34508
lhand -7.73827 20.6704
lfingers 7.12502
lthumb -161.839 229.843
rfemur -39.158 2.7814 14.8825
rtibia 34.2299
rfoot -6.42826 -6.94606
rtoes -14.3207
lfemur -33.2241 19.7005 -8.39559
ltibia 33.7734
lfoot -9.57333 2.51719
ltoes -19.9404
339
root -7.38297 17.7878 2.43775 -17.2237 81.1566 -36.5689
lowerback 6.7372 -10.8622 -5.75461
upperback 4.78815 -14.6634 3.91003
thorax 3.82986 -7.62724 7.39155
lowerneck -9.63821 13.3945 4.77484
upperneck 20.0506 21.0971 -13.4784
head 9.97491 9.0082 -2.6886
rclavicle -1.35174e-014 1.90833e-014
rhumerus 11.9967 -16.4318 -78.7729
rradius 86.8683
rwrist -33.3527
rhand -64.9017 17.6563
rfingers 7.12502
rthumb -36.8046 -8.45846
lclavicle -1.35174e-014 1.90833e-014
lhumerus 74.9077 -57.0048 70.0203
lradius 21.3474
lwrist -2.74419
lhand -8.14058 21.5065
lfingers 7.12502
lthumb -162.226 230.714
rfemur -38.6043 2.13202 13.8748
rtibia 34.6483
rfoot -6.38182 -8.9652
rtoes -15.1146
lfemur -33.624 17.8555 -9.01247
ltibia 32.8252
lfoot -9.48096 1.34728
ltoes -19.61
340
root -7.37474 17.7967 2.34916 -30.2355 83.7814 -49.3762
lowerback 6.23156 -10.8556 -4.89263
upperback 4.96398 -14.594 4.45531
thorax 4.21203 -7.58625 7.3939
lowerneck -10.0162 12.3886 4.98825
upperneck 20.8659 19.8218 -13.5308
head 10.2324 8.3822 -2.90873
rclavicle -8.11041e-014 2.54444e-014
rhumerus 9.89267 -15.2232 -78.575
rradius 85.5379
rwrist -34.7465
rhand -65.3765 17.9039
rfingers 7.12502
rthumb -37.2538 -8.09448
lclavicle -8.11041e-014 2.54444e-014
lhumerus 71.3803 -57.623 72.2753
lradius 20.7566
lwrist -2.99112
lhand -8.3453 22.33
lfingers 7.12502
lthumb -162.423 231.555
rfemur -37.8102 1.36368 13.0398
rtibia 35.078
rfoot -6.23756 -10.8171
rtoes -16.4718
lfemur -33.8859 16.1045 -9.50342
ltibia 31.8567
lfoot -9.28272 -0.0606449
ltoes -20.8299
341
root -7.36359 17.81 2.26412 -57.8628 85.6932 -76.7098
lowerback 5.68485 -10.8525 -4.07605
upperback 5.03915 -14.5454 5.0684
thorax 4.54622 -7.55179 7.49269
lowerneck -10.1754 11.3848 5.13062
upperneck 21.6991 18.6087 -13.7251
head 10.4695 7.78518 -3.17942
rclavicle -6.04305e-014 -9.54166e-015
rhumerus 7.56523 -13.9535 -78.6783
rradius 84.1012
rwrist -35.9154
rhand -65.7768 17.8286
rfingers 7.12502
rthumb -37.6321 -8.06977
lclavicle -6.04305e-014 -9.54166e-015
lhumerus 67.2469 -58.0303 75.0661
lradius 20.0404
lwrist -3.20904
lhand -8.12606 22.7019
lfingers 7.12502
lthumb -162.212 231.908
rfemur -36.8155 0.595386 12.2706
rtibia 35.4875
rfoot -5.92889 -12.505
rtoes -17.2909
lfemur -34.0519 14.6885 -10.0501
ltibia 30.9124
lfoot -9.15668 -1.89635
ltoes -22.1749
342
root -7.34806 17.8305 2.18328 -100.762 85.9184 -119.289
lowerback 4.97883 -10.7836 -3.38763
upperback 5.06893 -14.4259 5.66016
thorax 4.93668 -7.48199 7.61344
lowerneck -10.2083 10.3149 4.97995
upperneck 22.4057 17.2589 -13.6684
head 10.5607 7.14678 -3.35266
rclavicle -3.85642e-014 -1.82882e-014
rhumerus 5.22496 -13.2431 -79.262
rradius 82.5266
rwrist -36.9615
rhand -65.9212 17.1867
rfingers 7.12502
rthumb -37.7685 -8.67517
lclavicle -3.85642e-014 -1.82882e-014
lhumerus 62.8159 -58.3587 78.0015
lradius 19.3773
lwrist -3.44985
lhand -8.03212 24.0906
lfingers 7.12502
lthumb -162.122 233.289
rfemur -35.7079 -0.136412 11.3717
rtibia 35.8803
rfoot -5.82971 -13.9701
rtoes -16.1379
lfemur -34.0964 13.2474 -10.6729
ltibia 29.9794
lfoot -8.9333 -3.96704
ltoes -21.5401
343
root -7.32932 17.8547 2.1046 -131.56 84.291 -149.747
lowerback 4.07791 -10.6061 -2.76937
upperback 5.12241 -14.1778 6.19341
thorax 5.44274 -7.34541 7.68198
lowerneck -10.2063 9.1346 4.88106
upperneck 23.0695 15.702 -13.513
head 10.6016 6.43478 -3.52969
rclavicle -2.50469e-014 -1.70955e-014
rhumerus 2.97315 -12.2329 -79.865
rradius 80.906
rwrist -39.6749
rhand -65.6541 19.4216
rfingers 7.12502
rthumb -37.5161 -6.50763
lclavicle -2.50469e-014 -1.70955e-014
lhumerus 58.4428 -58.7853 80.5786
lradius 18.9678
lwrist -3.80323
lhand -7.80556 25.4364
lfingers 7.12502
lthumb -161.904 234.615
rfemur -34.49 -0.757335 10.3965
rtibia 36.2461
rfoot -5.94185 -15.4489
rtoes -14.2043
lfemur -34.017 11.898 -11.3864
ltibia 28.9913
lfoot -8.40652 -6.12523
ltoes -19.4628
344
root -7.31261 17.8777 2.03225 -146.2 81.78 -163.973
lowerback 3.21639 -10.4881 -2.24002
upperback 5.12716 -14.0252 6.82052
thorax 5.94536 -7.26037 7.9087
lowerneck -10.1389 7.96534 4.69461
upperneck 23.7391 14.2236 -13.5002
head 10.651 5.74464 -3.72872
rclavicle -4.46272e-014 7.37491e-014
rhumerus 1.00056 -10.8258 -80.4115
rradius 78.5509
rwrist -40.9686
rhand -66.0498 17.1748
rfingers 7.12502
rthumb -37.89 -8.65431
lclavicle -4.46272e-014 7.37491e-014
lhumerus 53.3795 -58.6397 83.7141
lradius 18.5852
lwrist -4.69044
lhand -7.47796 26.7356
lfingers 7.12502
lthumb -161.589 235.884
rfemur -33.1208 -1.17284 9.53011
rtibia 36.5551
rfoot -5.90892 -17.0744
rtoes -13.9491
lfemur -33.7875 10.733 -12.0857
ltibia 27.8995
lfoot -7.78061 -8.23384
ltoes -18.0829
345
root -7.29537 17.903 1.96305 -154.196 78.9981 -171.373
lowerback 2.53461 -10.4885 -1.74579
upperback 5.12592 -14.0338 7.51038
thorax 6.40128 -7.25625 8.25048
lowerneck -10.1919 6.87616 3.98609
upperneck 24.3989 12.9435 -13.4074
head 10.7062 5.10421 -3.772
rclavicle -7.90169e-015 -7.65321e-014
rhumerus -0.760908 -8.5507 -81.0636
rradius 76.3052
rwrist -43.6112
rhand -66.1048 17.3994
rfingers 7.12502
rthumb -37.9419 -8.41556
lclavicle -7.90169e-015 -7.65321e-014
lhumerus 48.3786 -57.8899 86.6387
lradius 18.2906
lwrist -5.32553
lhand -6.38301 28.4691
lfingers 7.12502
lthumb -160.536 237.515
rfemur -31.4628 -1.54203 8.69777
rtibia 36.8003
rfoot -5.91178 -18.5369
rtoes -13.774
lfemur -33.1929 9.40017 -12.7367
ltibia 26.6674
lfoot -7.21954 -10.1568
ltoes -17.9067
